<svg id="SignIn_background" data-name="SignIn background" xmlns="http://www.w3.org/2000/svg" viewBox="0 0 44.54 44.41"><defs><style>.cls-1{fill:#649a8f;}.cls-2{fill:none;stroke:#fff;stroke-linejoin:round;}</style></defs><title>Send</title><ellipse class="cls-1" cx="22.27" cy="22.2" rx="22.27" ry="22.2"/><rect class="cls-2" x="20.28" y="15.74" width="16.21" height="9.76"/><polygon class="cls-2" points="36.16 15.74 28.39 22.26 20.61 15.74 36.16 15.74"/><path class="cls-2" d="M1009.08,2342.69s2.83,0.84,3.76.64,2.22-1.49,3.09-1.58a12.62,12.62,0,0,1,3.4.95" transform="translate(-1001.03 -2325.88)"/><path class="cls-2" d="M1015.93,2341.74a12.62,12.62,0,0,1,3.4.95" transform="translate(-1001.03 -2325.88)"/><path class="cls-2" d="M1019.33,2344.93" transform="translate(-1001.03 -2325.88)"/><path class="cls-2" d="M1009.08,2344.93" transform="translate(-1001.03 -2325.88)"/><path class="cls-2" d="M1019.33,2347.64" transform="translate(-1001.03 -2325.88)"/><path class="cls-2" d="M1009.08,2347.64" transform="translate(-1001.03 -2325.88)"/><path class="cls-2" d="M1009.08,2346.14s2.83,0.84,3.76.64,2.22-1.49,3.09-1.58a12.62,12.62,0,0,1,3.4.95" transform="translate(-1001.03 -2325.88)"/><path class="cls-2" d="M1015.93,2345.2a12.62,12.62,0,0,1,3.4.95" transform="translate(-1001.03 -2325.88)"/><path class="cls-2" d="M1019.33,2348.38" transform="translate(-1001.03 -2325.88)"/><path class="cls-2" d="M1009.08,2348.38" transform="translate(-1001.03 -2325.88)"/><path class="cls-2" d="M1019.33,2351.1" transform="translate(-1001.03 -2325.88)"/><path class="cls-2" d="M1009.08,2351.1" transform="translate(-1001.03 -2325.88)"/><path class="cls-2" d="M1009.08,2349.6s2.83,0.84,3.76.64,2.22-1.49,3.09-1.58a12.62,12.62,0,0,1,3.4.95" transform="translate(-1001.03 -2325.88)"/><path class="cls-2" d="M1015.93,2348.65a12.62,12.62,0,0,1,3.4.95" transform="translate(-1001.03 -2325.88)"/><path class="cls-2" d="M1019.33,2351.84" transform="translate(-1001.03 -2325.88)"/><path class="cls-2" d="M1009.08,2351.84" transform="translate(-1001.03 -2325.88)"/><path class="cls-2" d="M1019.33,2354.55" transform="translate(-1001.03 -2325.88)"/><path class="cls-2" d="M1009.08,2354.55" transform="translate(-1001.03 -2325.88)"/></svg>