<svg id="SignIn_background" data-name="SignIn background" xmlns="http://www.w3.org/2000/svg" viewBox="0 0 26.43 26.43"><defs><style>.cls-1{fill:#ec4b57;}</style></defs><title>settings</title><path class="cls-1" d="M583.31,2223.31a10.21,10.21,0,1,0,10.21,10.21A10.21,10.21,0,0,0,583.31,2223.31Zm0,17.9a7.7,7.7,0,1,1,7.7-7.7A7.7,7.7,0,0,1,583.31,2241.22Z" transform="translate(-570.09 -2220.31)"/><rect class="cls-1" x="11.43" width="3.56" height="5.05"/><rect class="cls-1" x="576.18" y="2221.74" width="3.56" height="5.05" transform="translate(-1604.79 -1633.33) rotate(-30)"/><rect class="cls-1" x="572.27" y="2225.65" width="3.56" height="5.05" transform="translate(-2212.72 -609.08) rotate(-60)"/><rect class="cls-1" x="570.83" y="2231" width="3.56" height="5.05" transform="translate(-2231 585.83) rotate(-90)"/><rect class="cls-1" x="572.27" y="2236.34" width="3.56" height="5.05" transform="translate(-1647.93 1635.13) rotate(-120)"/><rect class="cls-1" x="576.18" y="2240.25" width="3.56" height="5.05" transform="translate(-612.99 2253.75) rotate(-150)"/><rect class="cls-1" x="581.52" y="2241.69" width="3.56" height="5.05" transform="translate(596.52 2268.11) rotate(-180)"/><rect class="cls-1" x="586.87" y="2240.25" width="3.56" height="5.05" transform="translate(1649.73 1670.45) rotate(150)"/><rect class="cls-1" x="590.78" y="2236.34" width="3.56" height="5.05" transform="translate(2257.67 624.82) rotate(120)"/><rect class="cls-1" x="592.21" y="2231" width="3.56" height="5.05" transform="translate(2257.42 -580.78) rotate(90)"/><rect class="cls-1" x="590.78" y="2225.65" width="3.56" height="5.05" transform="translate(1655.85 -1619.39) rotate(60)"/><rect class="cls-1" x="586.87" y="2221.74" width="3.56" height="5.05" transform="translate(620.9 -2216.64) rotate(30)"/></svg>