<svg id="SignIn_background" data-name="SignIn background" xmlns="http://www.w3.org/2000/svg" viewBox="0 0 44.54 44.41"><defs><style>.cls-1{fill:#649a8f;}.cls-2{fill:none;stroke:#fff;stroke-miterlimit:10;}.cls-3{fill:#fff;}</style></defs><title>Connect</title><ellipse class="cls-1" cx="22.27" cy="22.2" rx="22.27" ry="22.2"/><circle class="cls-2" cx="781.06" cy="3008.91" r="6.82" transform="translate(-1125.26 -2871.48) rotate(-6.88)"/><path class="cls-3" d="M784,3012.65H778.1c0-2.42,1.33-4.38,3-4.38S784,3010.23,784,3012.65Z" transform="translate(-770.45 -2986.71)"/><circle class="cls-3" cx="10.61" cy="20.01" r="1.55"/><circle class="cls-2" cx="33.92" cy="22.2" r="6.82"/><path class="cls-3" d="M807.34,3012.65h-5.93c0-2.42,1.33-4.38,3-4.38S807.34,3010.23,807.34,3012.65Z" transform="translate(-770.45 -2986.71)"/><circle class="cls-3" cx="33.92" cy="20.01" r="1.55"/><line class="cls-2" x1="17.43" y1="22.2" x2="27.14" y2="22.2"/><circle class="cls-2" cx="792.72" cy="3020.56" r="6.82" transform="translate(-1126.58 -2870) rotate(-6.88)"/><path class="cls-3" d="M795.68,3024.3h-5.93c0-2.42,1.33-4.38,3-4.38S795.68,3021.88,795.68,3024.3Z" transform="translate(-770.45 -2986.71)"/><circle class="cls-3" cx="22.27" cy="31.67" r="1.55"/><circle class="cls-2" cx="22.27" cy="10.55" r="6.82"/><path class="cls-3" d="M795.68,3001h-5.93c0-2.42,1.33-4.38,3-4.38S795.68,2998.57,795.68,3001Z" transform="translate(-770.45 -2986.71)"/><circle class="cls-3" cx="22.27" cy="8.36" r="1.55"/><line class="cls-2" x1="22.27" y1="27.04" x2="22.27" y2="17.34"/></svg>