<svg id="SignIn_background" data-name="SignIn background" xmlns="http://www.w3.org/2000/svg" viewBox="0 0 89.39 90.25"><defs><style>.cls-1{fill:#fff;}</style></defs><title>menu</title><path class="cls-1" d="M-878.68,2287l27.22,15-0.6-31.09-8.46,5.11a33,33,0,0,1-6.54-19.75A33.26,33.26,0,0,1-833.81,2223a33.26,33.26,0,0,1,33.26,33.26,33.13,33.13,0,0,1-10.57,24.27,53,53,0,0,1,9.86,6.09,44.35,44.35,0,0,0,12-30.36,44.52,44.52,0,0,0-44.52-44.52,44.52,44.52,0,0,0-44.52,44.52,44.28,44.28,0,0,0,8.11,25.6Z" transform="translate(878.68 -2211.78)"/></svg>