<svg id="SignIn_background" data-name="SignIn background" xmlns="http://www.w3.org/2000/svg" viewBox="0 0 58.36 57.8"><defs><style>.cls-1{fill:#fff;}</style></defs><title>menu</title><path class="cls-1" d="M-814.52,2280.81l9.71-17.6-20.1.39,3.3,5.47a21.33,21.33,0,0,1-12.77,4.23,21.51,21.51,0,0,1-21.51-21.51,21.51,21.51,0,0,1,21.51-21.51,21.42,21.42,0,0,1,15.69,6.83,34.26,34.26,0,0,1,3.94-6.37,28.68,28.68,0,0,0-19.63-7.74,28.79,28.79,0,0,0-28.79,28.79,28.79,28.79,0,0,0,28.79,28.79,28.64,28.64,0,0,0,16.56-5.24Z" transform="translate(863.17 -2223)"/></svg>